<svg width="20" height="20" viewBox="0 0 20 20" fill="none" xmlns="http://www.w3.org/2000/svg">
    <path fill-rule="evenodd" clip-rule="evenodd" d="M20 10.0608C20 4.5048 15.5224 0 10 0C4.47758 0 0 4.5048 0 10.0608C0 15.082 3.65634 19.2444 8.43765 20V12.9697H5.8979V10.0608H8.43765V7.84376C8.43765 5.32252 9.9311 3.92892 12.2149 3.92892C13.3089 3.92892 14.4537 4.12557 14.4537 4.12557V6.60155H13.1922C11.9505 6.60155 11.5623 7.37688 11.5623 8.1734V10.0607H14.3355L13.8925 12.9696H11.5623V19.9999C16.3436 19.2457 19.9999 15.0833 19.9999 10.0607L20 10.0608Z" fill="#1977F3"/>
</svg>
