<svg width="20" height="20" viewBox="0 0 20 20" fill="none" xmlns="http://www.w3.org/2000/svg">
    <g clip-path="url(#clip0_43_3895)">
        <path d="M16.6668 18.3333C17.1271 18.3333 17.5002 17.9602 17.5002 17.5C17.5002 17.0397 17.1271 16.6666 16.6668 16.6666C16.2066 16.6666 15.8335 17.0397 15.8335 17.5C15.8335 17.9602 16.2066 18.3333 16.6668 18.3333Z" stroke="#90A4AE" stroke-width="2" stroke-linecap="round" stroke-linejoin="round"/>
        <path d="M7.49984 18.3333C7.96007 18.3333 8.33317 17.9602 8.33317 17.5C8.33317 17.0397 7.96007 16.6666 7.49984 16.6666C7.0396 16.6666 6.6665 17.0397 6.6665 17.5C6.6665 17.9602 7.0396 18.3333 7.49984 18.3333Z" stroke="#90A4AE" stroke-width="2" stroke-linecap="round" stroke-linejoin="round"/>
        <path d="M0.833496 0.833374H4.16683L6.40016 11.9917C6.47637 12.3754 6.68509 12.72 6.98978 12.9653C7.29448 13.2106 7.67574 13.3409 8.06683 13.3334H16.1668C16.5579 13.3409 16.9392 13.2106 17.2439 12.9653C17.5486 12.72 17.7573 12.3754 17.8335 11.9917L19.1668 5.00004H5.00016" stroke="#90A4AE" stroke-width="2" stroke-linecap="round" stroke-linejoin="round"/>
    </g>
    <defs>
        <clipPath id="clip0_43_3895">
            <rect width="20" height="20" fill="white"/>
        </clipPath>
    </defs>
</svg>
