<svg width="20" height="18" viewBox="0 0 20 18" fill="none" xmlns="http://www.w3.org/2000/svg">
    <path d="M20 2.79746C19.2642 3.12412 18.4733 3.34412 17.6433 3.44329C18.4908 2.93579 19.1417 2.13162 19.4475 1.17329C18.655 1.64329 17.7767 1.98496 16.8417 2.16912C16.0942 1.37162 15.0267 0.873291 13.8467 0.873291C11.1975 0.873291 9.25083 3.34496 9.84917 5.91079C6.44 5.73996 3.41667 4.10662 1.3925 1.62412C0.3175 3.46829 0.835 5.88079 2.66167 7.10246C1.99 7.08079 1.35667 6.89662 0.804167 6.58912C0.759167 8.48996 2.12167 10.2683 4.095 10.6641C3.5175 10.8208 2.885 10.8575 2.24167 10.7341C2.76333 12.3641 4.27833 13.55 6.075 13.5833C4.35 14.9358 2.17667 15.54 0 15.2833C1.81583 16.4475 3.97333 17.1266 6.29 17.1266C13.9083 17.1266 18.2125 10.6925 17.9525 4.92162C18.7542 4.34246 19.45 3.61996 20 2.79746Z" fill="#1DA1F2"/>
</svg>
